PathFileType	4	(X/Y/Z)	marker.trc
DataRate	CameraRate	NumFrames	NumMarkers	Units	OrigDataRate	OrigDataStartFrame	OrigNumFrames
128	128	33	6	m	128	1	2567
Frame#	Time	US29-1	US29-2	US29-3	US30-1	US30-2	US30-3	
		X1	Y1	Z1	X2	Y2	Z2	X3	Y3	Z3	X4	Y4	Z4	X5	Y5	Z5	X6	Y6	Z6	

0	54.75	-nan	-nan	-nan	-nan	-nan	-nan	-nan	-nan	-nan	-nan	-nan	-nan	-nan	-nan	-nan	-nan	-nan	-nan	
1	0	-nan	-nan	-nan	-nan	-nan	-nan	-nan	-nan	-nan	-nan	-nan	-nan	-nan	-nan	-nan	-nan	-nan	-nan	
2	0.007812	-nan	-nan	-nan	-nan	-nan	-nan	-nan	-nan	-nan	-nan	-nan	-nan	-nan	-nan	-nan	-nan	-nan	-nan	
3	0.015625	-0.178984895348549	0.0656748488545418	0.13980433344841	-0.152934849262238	0.08358084410429	0.116403520107269	-0.181692451238632	0.0883660539984703	0.141747236251831	-0.229569673538208	0.0836544185876846	0.0801724418997765	-0.226565971970558	0.073484443128109	0.10360910743475	-0.233522772789001	0.0953010693192482	0.102471336722374	
4	0.023437	-0.178960710763931	0.0656547620892525	0.139816164970398	-0.152928039431572	0.0836273580789566	0.116421572864056	-0.181727483868599	0.088390976190567	0.14178092777729	-0.229574024677277	0.0836540684103966	0.0802025869488716	-0.22649247944355	0.0735364332795143	0.103615030646324	-0.233545646071434	0.0952668637037277	0.102445475757122	
5	0.03125	-0.178986132144928	0.0656562671065331	0.139803126454353	-0.152946591377258	0.0836227685213089	0.116413645446301	-0.181733310222626	0.0884027034044266	0.141776785254478	-0.229566693305969	0.0836717635393143	0.0802112072706223	-0.226536929607391	0.0734872817993164	0.103636339306831	-0.233513563871384	0.095269039273262	0.10244682431221	
6	0.039062	-0.178955972194672	0.0656706541776657	0.139867231249809	-0.152936592698097	0.0836143642663956	0.116413213312626	-0.181723803281784	0.0884049832820892	0.141787484288216	-0.229575246572495	0.0836792811751366	0.0801941677927971	-0.22662028670311	0.0734774395823479	0.103649981319904	-0.233570516109467	0.0953041762113571	0.102460317313671	
7	0.046875	-0.179010972380638	0.0656686425209045	0.139841169118881	-0.152930751442909	0.0836253017187119	0.116429679095745	-0.18172313272953	0.088418610394001	0.141782015562057	-0.229577034711838	0.0836711749434471	0.0801936388015747	-0.226479217410088	0.0735764876008034	0.103643998503685	-0.233540892601013	0.0952807143330574	0.102459572255611	
8	0.054687	-0.178989186882973	0.0656449943780899	0.139852195978165	-0.152951836585999	0.0836313143372536	0.116404667496681	-0.18170639872551	0.0884045138955116	0.141796410083771	-0.229601979255676	0.0836840867996216	0.0802042260766029	-0.226605698466301	0.0735173001885414	0.103658206760883	-0.23355171084404	0.0952565148472786	0.102476395666599	
9	0.0625	-0.178956016898155	0.0656769201159477	0.139857083559036	-0.15295535326004	0.0836092531681061	0.116420559585094	-0.181734144687653	0.0883974656462669	0.141791597008705	-0.229622140526772	0.083673931658268	0.0802086964249611	-0.226527169346809	0.0735191777348518	0.103610619902611	-0.233523860573769	0.0953108966350555	0.10247640311718	
10	0.070312	-0.178951412439346	0.0656346008181572	0.139867126941681	-0.152935311198235	0.0835887640714645	0.116433963179588	-0.181757941842079	0.088392548263073	0.14177642762661	-0.229595363140106	0.0836789384484291	0.0802169442176819	-0.226479932665825	0.0735361576080322	0.103630110621452	-0.233551055192947	0.095247708261013	0.102456033229828	
11	0.078125	-0.178974017500877	0.0656442195177078	0.139833837747574	-0.152919590473175	0.0836426839232445	0.116410031914711	-0.181728199124336	0.0883935838937759	0.141799211502075	-0.229602143168449	0.0836728438735008	0.0801959186792374	-0.226500168442726	0.0735143050551414	0.103658638894558	-0.233517199754715	0.0952989906072617	0.102471642196178	
12	0.085937	-0.178992182016373	0.0656590238213539	0.139835894107819	-0.152910247445107	0.083627000451088	0.116434350609779	-0.181748583912849	0.0884066596627235	0.141788333654404	-0.229588583111763	0.0836767554283142	0.0802094861865044	-0.226576551795006	0.0735175013542175	0.103628098964691	-0.233553543686867	0.0952383354306221	0.102470830082893	
13	0.09375	-0.178971633315086	0.0656533017754555	0.139865472912788	-0.152942702174187	0.0836116075515747	0.116436138749123	-0.181720465421677	0.0883929878473282	0.14179202914238	-0.229586884379387	0.0836761072278023	0.0802122950553894	-0.226494580507278	0.0735257863998413	0.103637024760246	-0.233538493514061	0.0953037366271019	0.102466143667698	
14	0.101562	-0.178980305790901	0.0656613558530807	0.139864012598991	-0.152935326099396	0.0836128517985344	0.116461008787155	-0.181747570633888	0.0884017869830132	0.141803771257401	-0.229598104953766	0.083679735660553	0.0801980644464493	-0.226502805948257	0.0735383257269859	0.103598088026047	-0.233501717448235	0.0952936708927155	0.102478682994843	
15	0.109375	-0.178960740566254	0.0656915158033371	0.139870256185532	-0.152938425540924	0.0836468935012817	0.116422422230244	-0.181739151477814	0.0884148553013802	0.141792863607407	-0.229627370834351	0.0836986750364304	0.0802091732621193	-0.226541355252266	0.0734938532114029	0.103638604283333	-0.233494997024536	0.0952941179275513	0.102490022778511	
16	0.117187	-0.178937688469887	0.0656851977109909	0.139878824353218	-0.152965769171715	0.0836587399244308	0.116445600986481	-0.181720331311226	0.088403731584549	0.141793191432953	-0.229580119252205	0.0836969912052155	0.0801965147256851	-0.22650320827961	0.0735604017972946	0.103634931147099	-0.233532845973969	0.095336064696312	0.10246953368187	
17	0.125	-0.179023057222366	0.0656806528568268	0.139843598008156	-0.152952820062637	0.0836353525519371	0.116471976041794	-0.181736558675766	0.0884278267621994	0.141794443130493	-0.229593530297279	0.0837103202939034	0.0802217498421669	-0.226576790213585	0.0735262110829353	0.103627279400826	-0.233557224273682	0.0952894538640976	0.102468587458134	
18	0.132812	-0.178963080048561	0.0657060295343399	0.139875203371048	-0.152920410037041	0.0836516618728638	0.116464763879776	-0.181713938713074	0.0884223133325577	0.141789585351944	-0.22955684363842	0.0836908221244812	0.0802100747823715	-0.226554736495018	0.0735636502504349	0.103654690086842	-0.233540296554565	0.0953414812684059	0.102495476603508	
19	0.140625	-0.178964272141457	0.0656741708517075	0.139889553189278	-0.152947932481766	0.0836503952741623	0.116457417607307	-0.181738033890724	0.0883991792798042	0.141806051135063	-0.229570537805557	0.0836983770132065	0.0802130922675133	-0.226431325078011	0.0735603272914886	0.103646799921989	-0.233503222465515	0.0953168570995331	0.102474898099899	
20	0.148437	-0.17894259095192	0.0656759142875671	0.139883056282997	-0.152933374047279	0.0836458802223206	0.116455093026161	-0.181756123900414	0.0884288400411606	0.141822099685669	-0.229587391018867	0.0837149173021317	0.080222986638546	-0.226561740040779	0.0735592916607857	0.103636540472507	-0.233510628342628	0.095343291759491	0.10249787569046	
21	0.15625	-0.178951099514961	0.0656853467226028	0.139901518821716	-0.152926877140999	0.0836368799209595	0.116479754447937	-0.181708574295044	0.0884152054786682	0.141816988587379	-0.229597315192223	0.083719901740551	0.0802058801054955	-0.226549342274666	0.0735168978571892	0.103658676147461	-0.233553320169449	0.095299020409584	0.102490551769733	
22	0.164062	-0.178984969854355	0.0657030493021011	0.13987971842289	-0.152923867106438	0.0836350992321968	0.116455428302288	-0.18172399699688	0.0884253606200218	0.141820549964905	-0.229576870799065	0.0836960896849632	0.0802109912037849	-0.226475775241852	0.0735407769680023	0.103646695613861	-0.233577847480774	0.095292404294014	0.10247340798378	
23	0.171875	-0.178967237472534	0.0656750649213791	0.139916494488716	-0.152942821383476	0.0836713835597038	0.116439990699291	-0.181739717721939	0.0884063914418221	0.141804248094559	-0.229546412825584	0.0837123319506645	0.0802216753363609	-0.226550161838531	0.0735279768705368	0.103636555373669	-0.233516365289688	0.0953329354524612	0.102480247616768	
24	0.179687	-0.178955584764481	0.0656847804784775	0.139911353588104	-0.152895048260689	0.0836483314633369	0.11646743118763	-0.181739434599876	0.0884263217449188	0.141811460256577	-0.229577764868736	0.0837079882621765	0.0802094489336014	-0.226577609777451	0.0735267698764801	0.103648394346237	-0.233548894524574	0.0953033939003944	0.102490060031414	
25	0.1875	-0.178991183638573	0.0656700059771538	0.139855325222015	-0.152940064668655	0.0836544409394264	0.116477929055691	-0.181749776005745	0.088419184088707	0.141827881336212	-0.229552671313286	0.0836988240480423	0.0801980271935463	-0.226497650146484	0.0735439285635948	0.103635206818581	-0.233542278409004	0.0952574610710144	0.102457396686077	
26	0.195312	-0.178960055112839	0.0657197237014771	0.139879882335663	-0.152929693460464	0.0836410522460938	0.11644733697176	-0.181737840175629	0.0883987620472908	0.141779169440269	-0.229567274451256	0.0837049707770348	0.0802122130990028	-0.226495176553726	0.0735261961817741	0.103616200387478	-0.233505427837372	0.0952812656760216	0.102444879710674	
27	0.203125	-0.178972586989403	0.0656700506806374	0.139885634183884	-0.152920797467232	0.0836684852838516	0.116469785571098	-0.181764885783195	0.0884315744042397	0.141807571053505	-0.229542270302773	0.0837047547101974	0.0801920294761658	-0.226499378681183	0.0735557228326797	0.103653900325298	-0.233540669083595	0.0953144580125809	0.102477997541428	
28	0.210937	-0.178955733776093	0.0656876489520073	0.139900848269463	-0.152933552861214	0.0836639031767845	0.116470120847225	-0.181777983903885	0.0884110033512115	0.141806855797768	-0.229564473032951	0.0837103128433228	0.0801898017525673	-0.226546451449394	0.073550246655941	0.103631868958473	-0.233538702130318	0.0952924340963364	0.102485135197639	
29	0.21875	-0.178944870829582	0.0656870901584625	0.139867231249809	-0.152985811233521	0.0836251154541969	0.116416282951832	-0.181740835309029	0.0883936211466789	0.141807153820992	-0.229573145508766	0.0837124884128571	0.0801986381411552	-0.226505696773529	0.0735759809613228	0.103615060448647	-0.233528539538383	0.0953098833560944	0.102462820708752	
30	0.226562	-0.178976133465767	0.0656835585832596	0.139859333634377	-0.152924418449402	0.083667665719986	0.116476029157639	-0.181728020310402	0.0884436890482903	0.141784086823463	-0.229564517736435	0.0837198793888092	0.0801905244588852	-0.226556703448296	0.073572926223278	0.103653773665428	-0.233498901128769	0.0953306406736374	0.102459810674191	
31	0.234375	-0.178969666361809	0.065683476626873	0.139855906367302	-0.152920737862587	0.0836545303463936	0.116448730230331	-0.181738987565041	0.0884273052215576	0.141817525029182	-0.229539573192596	0.0837310999631882	0.0802108496427536	-0.226505160331726	0.0735599100589752	0.103674754500389	-0.23351888358593	0.0953310951590538	0.102488875389099	
32	0.242187	-0.178933084011078	0.0656951367855072	0.139897674322128	-0.152938291430473	0.0836667194962502	0.116476401686668	-0.181713372468948	0.0884373933076859	0.141802102327347	-0.22954535484314	0.0837412476539612	0.0801927745342255	-0.226532191038132	0.0735385790467262	0.1036282107234	-0.233536839485168	0.0953101441264153	0.10245693475008	
